<?xml version="1.0" encoding="utf-8"?>
<!-- Generator: Adobe Illustrator 17.0.2, SVG Export Plug-In . SVG Version: 6.00 Build 0)  -->
<!DOCTYPE svg PUBLIC "-//W3C//DTD SVG 1.1//EN" "http://www.w3.org/Graphics/SVG/1.1/DTD/svg11.dtd">
<svg version="1.1" id="Layer_1" xmlns="http://www.w3.org/2000/svg" xmlns:xlink="http://www.w3.org/1999/xlink" x="0px" y="0px"
	 width="240px" height="305px" viewBox="0 0 240 305" enable-background="new 0 0 240 305" xml:space="preserve">
<g>
	<g>
		<path fill="none" stroke="#D6D4D4" stroke-width="4.6696" stroke-linecap="round" stroke-miterlimit="10" d="M85.309,93.057
			c0,0,2.323,10.839,35.01,9.801s33.332-12.427,50.973-4.125s36.838,2.498,36.838-4.247"/>
		<path fill="none" stroke="#D6D4D4" stroke-width="4.6696" stroke-linecap="round" stroke-miterlimit="10" d="M120.32,102.858
			c0,0,19.323,22.24,42.152,13.938s19.716-8.301,29.574-1.038"/>
	</g>
	<path fill="#D6D4D4" stroke="#D6D4D4" stroke-width="4.6696" stroke-miterlimit="10" d="M70.718,106.289
		c-2.808,2.491-5.549,5.037-8.073,7.757c-18.146,19.548-34.421,42.719-44.564,67.492c-3.045,7.438-5.487,15.123-7.294,22.954
		c-1.787,7.746-2.996,15.658-3.324,23.606c-0.323,7.823,0.202,15.785,2.424,23.325c2.311,7.841,6.548,14.925,12.515,20.533
		c7.656,7.195,17.454,11.712,27.364,14.88c14.129,4.516,28.997,6.574,43.721,7.956c16.511,1.549,33.073,2.056,49.642,2.513
		c30.867,0.853,79.598-5.963,88.586-42.897c1.871-7.688,0.669-15.682-1.888-23.065c-3.99-11.521-10.92-21.954-18.184-31.644
		c-10.804-14.413-23.105-27.687-35.659-40.576c-15.191-15.597-31.35-29.473-47.666-43.828c-4.416-3.885-12.198-11.633-5.289-16.551
		c6.155-4.381,14.259-4.458,21.224-6.869c9.656-3.343,19.481-9.016,27.438-15.343c8.812-7.007,13.395-16.047-2.033-17.981
		c-4.502-0.565-8.398-0.571-12.019-3.649c-6.289-5.347,7.545-20.641-7.36-20.341c-4.168,0.084-12.454,3.999-16.65,1.874
		c-3.383-1.715-2.201-9.058-2.083-12.019c0.209-5.277,0.448-11.898-2.937-16.324c-4.5-5.884-14.634,7.792-17.18,10.985
		c-12.824,16.087-8.087,37.085-14.14,55.429C92.7,88.414,81.236,96.96,70.718,106.289z"/>
	<path fill="#D7F5F7" stroke="#D7F5F7" stroke-width="5.4279" stroke-miterlimit="10" d="M191.617,176.279
		c16.274,18.534,13.772,15.687,20.025,24.03c7.263,9.69,14.194,20.123,18.184,31.644c2.557,7.383,3.759,15.377,1.888,23.065
		c-8.988,36.934-57.719,43.75-88.586,42.897c-16.569-0.458-33.131-0.964-49.642-2.513c-14.724-1.382-29.592-3.44-43.721-7.956
		c-9.911-3.167-19.708-7.685-27.364-14.88c-5.966-5.607-10.204-12.691-12.515-20.532c-2.222-7.541-2.747-15.502-2.424-23.325
		c0.328-7.948,1.537-15.861,3.324-23.606c1.807-7.831,4.248-15.516,7.294-22.954c7.043,5.948,17.515,8.555,26.52,8.757
		c17.999,0.402,31.967-14.225,48.822-13.887c9.072,0.182,18.428,7.074,27.747,8.412c8.521,1.223,22.456,2.922,30.518-1.206
		C167.142,176.308,177.326,160.002,191.617,176.279z"/>
	<circle fill="#FFFFFF" stroke="#FFFFFF" stroke-width="0.7617" stroke-miterlimit="10" cx="143.486" cy="215.314" r="14.726"/>
	<g>
		<path fill="#EBA544" stroke="#EBA544" stroke-width="1.1414" stroke-miterlimit="10" d="M88.324,230.272
			c0,0-7.754-16.157,11.779-9.194"/>
		<path fill="#EBA544" stroke="#EBA544" stroke-width="1.1414" stroke-miterlimit="10" d="M85.565,233.474
			c0,0-10.573-17.081-18.338,1.498c-5.048,12.079,1.303,15.298,8.261,15.447c3.744,0.08,7.664-0.729,10.077-1.525"/>
		<path fill="#EBA544" stroke="#EBA544" stroke-width="1.1414" stroke-miterlimit="10" d="M96.211,260.216
			c1.291,7.766-10.201,19.722-19.049,11.621c-1.846-1.691-2.931-4.129-3.585-6.504c-1.387-5.045-0.317-10.26,1.91-14.913
			C75.488,250.419,92.188,236.024,96.211,260.216z"/>
		<path fill="#EBA544" stroke="#EBA544" stroke-width="1.1414" stroke-miterlimit="10" d="M116.504,260.181
			c-4.461,0.87-7.455,4.457-10.137,7.812c-2.3,2.878-5.979,7.397-2.259,10.793c6.378,5.823,18.8,8.02,20.52,0
			c0.89-4.149,2.135-9.308,0.458-13.421c-1.223-2.999-4.169-5.422-7.478-5.312C117.236,260.066,116.868,260.11,116.504,260.181z"/>
		<path fill="#EBA544" stroke="#EBA544" stroke-width="1.1414" stroke-miterlimit="10" d="M138.5,269.9
			c0,0,0.739,14.378-14.747,11.077c0,0-6.342-13.763,2.262-17.368C134.619,260.004,138.5,269.9,138.5,269.9z"/>
		<path fill="#EBA544" stroke="#EBA544" stroke-width="1.2479" stroke-miterlimit="10" d="M101.89,219.998
			c0,0-20.52,11.647-19.134,21.63c1.387,9.983,14.42,21.075,24.125,24.68c9.706,3.605,48.805,16.361,54.074-26.621
			c0,0,7.487-30.226-21.352-28.562S101.89,219.998,101.89,219.998"/>
	</g>
	<path fill="#ED6E46" stroke="#ED6E46" stroke-width="1.2479" stroke-miterlimit="10" d="M151.388,242.737
		c-0.148-0.006,0.587,4.499,0.651,4.771c0.446,1.909,1.09,3.809,2.241,5.417c3.966,5.544,12.759,1.32,11.893-5.248
		c-0.394-2.991-2.875-4.345-5.6-4.84c-2.723-0.495-6.464,0.013-9.184-0.1c0.848,0.035,1.62-0.073,2.324-0.299
		c4.924-1.585,6.485-8.956,7.309-13.424c0.297-1.611,0.666-4.055,1.745-5.342c1.236-1.474,2.564-0.276,3.447,1.002
		c3.902,5.647,2.048,14.293-4.453,16.834C158.523,242.773,154.823,242.905,151.388,242.737z"/>
	<circle fill="#FFFFFF" stroke="#FFFFFF" stroke-width="0.9266" stroke-miterlimit="10" cx="132.227" cy="219.614" r="17.914"/>
	<circle fill="#333333" stroke="#333333" stroke-width="1.2479" stroke-miterlimit="10" cx="137.852" cy="221.845" r="2.357"/>
</g>
</svg>
